PathFileType	4	(X/Y/Z)	C:\Users\Basilio\Documents\Thesis Gigler\squatting_fais\c3dfiles\040\SLS_pre_front1\markers_experimental.trc
DataRate	CameraRate	NumFrames	NumMarkers	Units	OrigDataRate	OrigDataStartFrame	OrigNumFrames
200.000000	200.000000	4	62	mm	200.000000	282	1129
Frame#	Time	FHD			LBHD			RBHD			C7			T10			CLAV			LSHO			LUUPA			LMUPA			LDUPA			LLEP			LMEP			LRAD			LUL			LRFIN			RSHO			RUPA1			RMUPA			RDUPA			RLEP			RMEP			RRAD			RUL			RUFIN			LASI			RASI			USACR			LSACR			RSACR			LTHI1			LTHI2			LTHI3			LTHI4			LLFC			LMFC			LTIB1			LTIB2			LTIB3			LTIB4			LLMAL			LMMAL			LHEE			LMT1			LMT2			LMT5			RTHI			RTHI2			RTHI3			RTHI4			RLFC			RMFC			RTIB1			RTIB2			RTIB3			RTIB4			RLMAL			RMMAL			RHEE			RMT1			RMT2			RMT5			*61			
		X1	Y1	Z1	X2	Y2	Z2	X3	Y3	Z3	X4	Y4	Z4	X5	Y5	Z5	X6	Y6	Z6	X7	Y7	Z7	X8	Y8	Z8	X9	Y9	Z9	X10	Y10	Z10	X11	Y11	Z11	X12	Y12	Z12	X13	Y13	Z13	X14	Y14	Z14	X15	Y15	Z15	X16	Y16	Z16	X17	Y17	Z17	X18	Y18	Z18	X19	Y19	Z19	X20	Y20	Z20	X21	Y21	Z21	X22	Y22	Z22	X23	Y23	Z23	X24	Y24	Z24	X25	Y25	Z25	X26	Y26	Z26	X27	Y27	Z27	X28	Y28	Z28	X29	Y29	Z29	X30	Y30	Z30	X31	Y31	Z31	X32	Y32	Z32	X33	Y33	Z33	X34	Y34	Z34	X35	Y35	Z35	X36	Y36	Z36	X37	Y37	Z37	X38	Y38	Z38	X39	Y39	Z39	X40	Y40	Z40	X41	Y41	Z41	X42	Y42	Z42	X43	Y43	Z43	X44	Y44	Z44	X45	Y45	Z45	X46	Y46	Z46	X47	Y47	Z47	X48	Y48	Z48	X49	Y49	Z49	X50	Y50	Z50	X51	Y51	Z51	X52	Y52	Z52	X53	Y53	Z53	X54	Y54	Z54	X55	Y55	Z55	X56	Y56	Z56	X57	Y57	Z57	X58	Y58	Z58	X59	Y59	Z59	X60	Y60	Z60	X61	Y61	Z61	X62	Y62	Z62	

283	1.41	-203.8748016357422	1765.285766601563	-1128.91796875	-328.7018737792969	1720.09326171875	-1176.196655273438	-387.9275207519532	1682.193725585938	-1047.2041015625	-403.509979248047	1557.094604492188	-1094.66357421875	-429.0073852539064	1237.916259765625	-1077.185791015625	-275.2269287109376	1486.564575195313	-1095.861206054688	-332.0938110351563	1525.792846679688	-1261.111328125	-267.6763916015626	1343.05029296875	-1352.45068359375	-223.8493347167969	1335.17041015625	-1330.147338867188	-233.6980133056641	1284.3662109375	-1363.423217773438	-215.7362365722657	1224.802124023438	-1367.109619140625	-250.7439727783204	1195.595581054688	-1316.578491210938	0.8213707804679873	1047.735595703125	-1300.442749023438	-14.96575546264649	1038.597534179688	-1374.86962890625	75.31451416015626	997.9204101562502	-1312.55859375	-311.5059814453126	1503.463500976563	-933.2124633789065	-257.1497497558594	1315.492431640625	-849.0611572265627	-212.4075164794922	1312.717163085938	-867.2468261718752	-218.6768798828126	1257.230590820313	-843.8200683593752	-182.0972747802735	1207.505493164063	-846.1569824218752	-218.4354400634766	1174.557983398438	-905.0770263671877	48.04315567016603	1052.7568359375	-939.9044189453127	27.03919029235841	1028.039794921875	-869.264831542969	123.4179992675782	999.1956787109377	-924.348327636719	-241.7272644042969	1070.396484375	-1181.368408203125	-243.8168487548829	1076.179565429688	-951.8093261718752	-429.7640380859376	1098.147094726563	-1060.738891601563	-434.6644287109376	1068.10693359375	-1087.572021484375	-434.8015441894532	1067.891235351563	-1031.213012695313	-331.5122070312501	803.2852783203127	-1220.05712890625	-283.7044067382813	733.1226196289064	-1221.0517578125	-239.1082000732422	742.9421386718751	-1227.993041992188	-298.1226806640626	678.5194091796876	-1204.342407226563	-264.8657836914063	548.4464721679689	-1187.075317382813	-259.0016174316407	539.7600708007814	-1056.057739257813	-245.3814697265626	323.3927917480469	-1126.716430664063	-321.7572021484376	292.5010681152344	-1158.83544921875	-280.4232482910157	280.0624694824219	-1147.636474609375	-278.8169555664063	204.2666015625001	-1103.656372070313	-357.2267761230469	125.8886947631836	-1105.666625976563	-317.4204406738282	140.9276275634766	-1027.277221679688	-413.8794555664064	96.90495300292972	-1048.17626953125	-200.1232299804688	56.26784133911134	-1050.148071289063	-205.4257965087891	51.39378738403322	-1096.005859375	-262.1100158691407	37.52576065063477	-1137.607788085938	-224.2177734375001	813.916687011719	-875.5371704101565	-173.7631225585938	771.9639892578127	-883.6026000976565	-144.5239868164063	783.7318115234377	-894.4357910156252	-178.0435485839844	688.3437500000001	-895.3337402343752	-126.2771530151367	564.7810058593751	-907.8320922851565	-130.2098236083985	557.3786621093751	-1042.400024414063	-11.1906909942627	411.8566284179689	-938.0948486328127	-46.6672706604004	312.8005981445313	-910.2819824218752	-4.623431205749513	325.3440551757813	-923.969421386719	27.85424041748048	289.9349975585938	-958.3566894531252	27.45100212097169	162.4607543945313	-936.1811523437502	31.80864334106446	185.0451354980469	-1022.300048828125	-17.19650268554688	94.81092834472658	-987.4673461914065	188.7963104248047	176.0460052490235	-1018.392456054688	186.4912261962891	175.8930053710938	-978.7593994140627	166.0993804931641	134.3480377197266	-925.889587402344	nan	nan	nan	
284	1.415	-204.5301208496094	1765.349487304688	-1128.983764648438	-329.1570739746094	1720.073608398438	-1176.252685546875	-388.3746948242189	1682.196044921875	-1047.28271484375	-404.0873413085939	1557.0966796875	-1094.659423828125	-428.8486328125001	1238.039184570313	-1076.885986328125	-275.7197570800782	1486.601196289063	-1095.915283203125	-332.5843505859376	1525.836303710938	-1261.003784179688	-266.9407348632813	1343.942993164063	-1352.554931640625	-223.0640258789063	1336.40966796875	-1330.176513671875	-232.3724670410157	1285.506713867188	-1363.686645507813	-213.9087677001954	1226.13134765625	-1367.879150390625	-248.9926147460938	1196.648071289063	-1317.063232421875	3.433690547943116	1050.305297851563	-1300.816528320313	-12.43531894683838	1041.30615234375	-1375.360473632813	78.49380493164064	1000.773193359375	-1313.013427734375	-311.7868652343751	1503.443237304688	-933.3628540039065	-256.2425842285157	1316.144897460938	-848.995788574219	-211.6280670166016	1313.555786132813	-867.2664794921877	-217.9972229003907	1258.1689453125	-843.8475341796877	-180.1814117431641	1208.784301757813	-846.2749633789065	-217.4244689941407	1176.005004882813	-904.5840454101565	50.31715393066408	1055.8349609375	-939.9392089843752	30.19804763793946	1030.921752929688	-869.4578247070315	126.6506271362305	1002.769714355469	-924.901550292969	-242.1458892822266	1070.409301757813	-1181.416748046875	-243.9932403564454	1076.246215820313	-951.8555908203127	-429.9346923828126	1098.285888671875	-1060.569946289063	-434.9898681640626	1068.013671875	-1087.45556640625	-435.0904846191407	1067.740966796875	-1031.12158203125	-331.7935180664063	803.236267089844	-1220.06201171875	-283.9772644042969	733.1516723632814	-1221.0830078125	-238.8785858154297	742.6163940429689	-1227.98828125	-298.3726806640626	678.5236206054689	-1204.267211914063	-265.1065979003907	548.4152832031251	-1187.099243164063	-259.0128479003907	539.7798461914064	-1056.047241210938	-245.9048004150391	323.7106323242188	-1126.963134765625	-321.8973083496094	292.5337829589844	-1158.896484375	-280.1836547851563	280.8865661621094	-1147.628295898438	-278.9486389160157	204.2490234375001	-1103.768676757813	-357.1904602050782	125.7785797119141	-1105.67431640625	-317.4295959472657	140.947494506836	-1027.333374023438	-413.8963623046876	96.94621276855472	-1048.211303710938	-200.2681121826172	56.3444175720215	-1050.096801757813	-205.4051818847657	51.37788009643556	-1096.013916015625	-262.0970153808594	37.50346755981446	-1137.661254882813	-224.7549743652344	813.8109130859377	-875.4608154296877	-174.1254577636719	771.767761230469	-883.6177978515627	-144.96044921875	783.5935058593752	-894.2556152343752	-178.4075622558594	688.6751708984376	-895.2822265625002	-126.3569030761719	564.8687744140626	-907.7564697265627	-130.2139739990235	557.3656616210939	-1042.361083984375	-11.22585868835449	411.9354248046876	-937.9700317382815	-46.60606002807618	312.8254699707032	-910.216491699219	-4.579052448272706	325.5007324218751	-923.8528442382815	27.84918594360352	290.1970825195313	-958.195007324219	27.76037025451661	162.5557250976563	-936.067321777344	31.98173522949219	185.1854553222657	-1022.201477050781	-16.78392601013184	94.91308593750001	-987.370056152344	188.8192749023438	175.9407806396485	-1018.510314941406	187.3259735107422	176.4982147216797	-978.5689086914065	166.3643493652344	134.6270446777344	-925.7641601562502	nan	nan	nan	
285	1.42	-205.1283111572266	1765.409790039063	-1128.919067382813	-329.7415466308594	1720.064697265625	-1176.338134765625	-389.0098571777345	1682.190795898438	-1047.271362304688	-404.6380615234376	1557.07177734375	-1094.65673828125	-429.2504882812501	1237.902587890625	-1076.826904296875	-276.3786926269532	1486.70068359375	-1095.868530273438	-333.2896423339844	1525.959106445313	-1260.858642578125	-266.2451171875001	1344.836791992188	-1352.632568359375	-222.5694122314454	1337.466430664063	-1330.1953125	-231.3608551025391	1286.756958007813	-1363.996459960938	-212.2511901855469	1227.564575195313	-1368.10302734375	-247.1155548095704	1197.78857421875	-1317.613037109375	6.192054271698	1053.047485351563	-1301.198486328125	-9.493110656738283	1044.10205078125	-1375.787719726563	81.6350784301758	1004.390808105469	-1313.30615234375	-312.1290893554688	1503.432250976563	-933.5598754882815	-255.4049682617188	1316.713989257813	-849.149353027344	-210.7835388183594	1314.430419921875	-867.4498291015627	-216.7522888183594	1259.04345703125	-843.8608398437502	-178.6488494873047	1209.943359375	-846.286071777344	-215.267807006836	1177.020263671875	-904.7913818359377	53.27120971679689	1059.34765625	-940.3144531250002	33.25228881835938	1033.901000976563	-869.604919433594	129.5175018310547	1006.479797363281	-925.362243652344	-242.0652923583985	1070.261474609375	-1181.333251953125	-244.1751098632813	1076.20166015625	-951.8660888671877	-430.2941894531251	1098.165893554688	-1060.481201171875	-434.256805419922	1067.796997070313	-1087.088500976563	-435.4121398925782	1067.642211914063	-1031.0478515625	-332.0958557128907	803.262634277344	-1219.982177734375	-284.2567749023438	733.1432495117189	-1221.100830078125	-239.691879272461	742.9097290039064	-1228.097534179688	-298.5959472656251	678.5155639648439	-1204.293823242188	-265.1800842285157	548.4143676757814	-1187.083984375	-259.0483703613282	539.7783203125001	-1056.119750976563	-245.6404571533204	323.4832458496094	-1126.991088867188	-322.1192016601563	292.5328063964844	-1158.917236328125	-280.2691955566407	280.7984008789063	-1147.689331054688	-278.9886474609376	204.2148895263672	-1103.828979492188	-357.1437988281251	125.6723785400391	-1105.716796875	-317.4087219238282	140.9329681396485	-1027.363159179688	-413.9243774414064	96.91199493408206	-1048.218994140625	-200.2380981445313	56.32727813720705	-1050.125366210938	-205.4224700927735	51.38752365112306	-1096.049926757813	-262.1729431152344	37.4896469116211	-1137.688720703125	-224.9205627441407	813.617126464844	-875.3281250000002	-174.3887634277344	771.825134277344	-883.5510864257815	-145.3201751708985	783.568054199219	-894.0781250000002	-178.7134399414063	688.7043457031251	-895.1775512695315	-126.194320678711	565.0977783203126	-907.4336547851565	-130.338119506836	557.3366088867189	-1042.250610351563	-11.21896934509278	411.9491577148439	-937.8278808593752	-46.52391052246094	312.7714233398438	-910.1472167968752	-4.525446891784669	325.5868835449219	-923.7772216796877	28.00032043457032	290.3025207519532	-958.0581665039065	28.00337409973145	162.7087097167969	-935.8905029296877	32.21664047241212	185.3967590332032	-1022.083740234375	-16.39609146118164	94.98096466064455	-987.2009887695315	189.0057525634766	176.2652282714844	-1018.394409179688	187.2853088378907	176.7433624267578	-978.5230712890627	166.694091796875	134.7403564453125	-925.6075439453127	nan	nan	nan	
286	1.425	-205.6535034179688	1765.284790039063	-1128.948120117188	-330.1938476562501	1720.015991210938	-1176.335693359375	-389.3514404296876	1682.126098632813	-1047.312133789063	-405.1101379394532	1557.154541015625	-1094.593994140625	-429.5289916992189	1237.862426757813	-1076.76904296875	-276.8302001953126	1486.26611328125	-1096.069458007813	-333.6038818359376	1526.066284179688	-1260.786254882813	-265.4414672851563	1345.739379882813	-1352.840698242188	-221.8055725097657	1338.838623046875	-1330.290649414063	-230.2181243896485	1288.215698242188	-1364.301025390625	-210.5368804931641	1229.104736328125	-1368.033935546875	-245.2312774658204	1198.71240234375	-1318.225708007813	9.197006225585939	1055.530639648438	-1301.466918945313	-5.77442502975464	1046.825317382813	-1376.202392578125	84.63170623779298	1007.209167480469	-1312.92138671875	-312.5389709472657	1503.372436523438	-933.806579589844	-254.4863891601563	1317.926391601563	-849.329772949219	-209.9456787109376	1315.784912109375	-867.4860839843752	-215.1804656982422	1260.22705078125	-843.975769042969	-176.7454071044922	1211.447387695313	-846.7174072265627	-213.4477844238282	1178.115600585938	-905.0053710937502	56.43504714965822	1062.460083007813	-940.7709960937502	36.68643951416016	1037.374877929688	-870.0104980468752	132.9047393798828	1010.829528808594	-926.0149536132815	-242.2758941650391	1070.299560546875	-1181.331176757813	-244.3718566894532	1076.128051757813	-951.8848266601565	-430.6012573242189	1098.0966796875	-1060.358032226563	-434.4716796875001	1067.628051757813	-1086.941528320313	-435.546112060547	1067.506713867188	-1031.02685546875	-332.5114746093751	803.253845214844	-1219.923828125	-284.5301818847657	733.1354370117189	-1221.049682617188	-239.9734191894532	742.9337158203126	-1228.189331054688	-298.8945922851563	678.5724487304689	-1204.278564453125	-265.4479675292969	548.4413452148439	-1187.182495117188	-259.1412353515626	539.7944946289064	-1056.135131835938	-246.0933990478516	323.7539367675782	-1127.2041015625	-322.2256469726563	292.5314331054688	-1158.972900390625	-280.3542175292969	280.8157653808594	-1147.81396484375	-279.0345764160157	204.1952819824219	-1103.992553710938	-357.2863769531251	125.6393127441407	-1105.734619140625	-317.4574890136719	140.9526824951172	-1027.404418945313	-413.9115600585939	96.91094970703128	-1048.1982421875	-200.2596282958985	56.32290267944337	-1050.138305664063	-205.4750366210938	51.39424896240236	-1096.009521484375	-262.1330566406251	37.45418930053712	-1137.713745117188	-225.1105346679688	813.6979980468752	-875.4166259765627	-174.6310729980469	771.9183349609377	-883.4967041015627	-145.4351959228516	783.7505493164065	-894.039245605469	-178.9401397705078	688.6035766601564	-895.093444824219	-126.7810363769532	564.9171142578126	-907.5015258789065	-129.7537231445313	557.1628417968751	-1042.30615234375	-11.21475696563721	412.3627929687501	-937.6875000000002	-46.4264030456543	312.6810913085938	-909.9876098632815	-4.391255378723145	325.6855468750001	-923.7249755859377	27.81402397155762	290.6864929199219	-958.0645751953127	28.25688552856446	162.9019165039063	-935.7375488281252	32.49638366699219	185.5604248046875	-1022.08447265625	-15.63130950927735	95.30377197265626	-987.2576293945315	189.0040588378907	176.4169158935547	-1018.316955566406	187.3072052001953	176.9628448486328	-978.4268188476565	167.1079406738282	135.0014038085938	-925.4578247070315	nan	nan	nan	
